<svg width="70" height="70" viewBox="0 0 70 70" fill="none" xmlns="http://www.w3.org/2000/svg">
<g clip-path="url(#clip0_45_2)">
<path d="M70 0H0V70H70V0Z" fill="#1BD741"/>
<path d="M10.5205 59.506L13.9493 47.328C11.7444 43.5822 10.5835 39.3202 10.5835 34.942C10.5835 21.4614 21.5508 10.4941 35.0314 10.4941C48.5121 10.4941 59.4792 21.4614 59.4792 34.942C59.4792 48.4227 48.5121 59.39 35.0314 59.39C30.831 59.39 26.7179 58.3148 23.0793 56.2731L10.5205 59.506ZM23.7213 51.8254L24.4696 52.2823C27.6421 54.2191 31.2944 55.2428 35.0314 55.2428C46.2253 55.2428 55.332 46.1359 55.332 34.942C55.332 23.7482 46.2253 14.6413 35.0314 14.6413C23.8376 14.6413 14.7307 23.7482 14.7307 34.942C14.7307 38.8424 15.8392 42.63 17.9361 45.8954L18.4401 46.6801L16.4656 53.6931L23.7213 51.8254Z" fill="white"/>
<path d="M28.1638 23.5632L26.5774 23.4768C26.0791 23.4496 25.5904 23.6161 25.2137 23.9432C24.4447 24.6111 23.215 25.9022 22.8372 27.5848C22.274 30.0935 23.1444 33.1655 25.3973 36.2375C27.6501 39.3095 31.8485 44.2246 39.2724 46.3239C41.6647 47.0003 43.5466 46.5443 44.9986 45.6155C46.1486 44.8799 46.9413 43.6992 47.227 42.3644L47.4803 41.1814C47.5608 40.8054 47.3698 40.4238 47.0206 40.2629L41.6592 37.7916C41.3111 37.6312 40.8984 37.7326 40.6643 38.036L38.5595 40.7645C38.4006 40.9706 38.1284 41.0524 37.8826 40.966C36.4412 40.4595 31.613 38.4373 28.9637 33.3341C28.8488 33.1128 28.8774 32.8442 29.0404 32.6554L31.0519 30.3284C31.2574 30.0907 31.3093 29.7567 31.1858 29.4679L28.8748 24.061C28.7517 23.7732 28.476 23.5803 28.1638 23.5632Z" fill="white"/>
</g>
<defs>
<clipPath id="clip0_45_2">
<rect width="70" height="70" fill="white"/>
</clipPath>
</defs>
</svg>
